# AST/ASF file generated using VICON BodyLanguage
# -----------------------------------------------
:version 1.10
:name VICON
:units
  mass 1.0
  length 0.45
  angle deg
:documentation
   .ast/.asf automatically generated from VICON data using
   VICON BodyBuilder and BodyLanguage model FoxedUp or BRILLIANT.MOD
:root
   order TX TY TZ RX RY RZ
   axis XYZ
   position 0 0 0  
   orientation 0 0 0 
:bonedata
  begin
     id 1 
     name lhipjoint
     direction 0.710188 -0.616876 0.339259 
     length 2.5669 
     axis 0 0 0  XYZ
  end
  begin
     id 2 
     name lfemur
     direction 0.34202 -0.939693 0  
     length 7.12796  
     axis 0 0 20  XYZ
    dof rx ry rz
    limits (-160.0 20.0)
           (-70.0 70.0)
           (-60.0 70.0)
  end
  begin
     id 3 
     name ltibia
     direction 0.34202 -0.939693 0   
     length 7.58108   
     axis 0 0 20   XYZ
    dof rx
    limits (-10.0 170.0)
  end
  begin
     id 4 
     name lfoot
     direction 0.0669471 -0.183936 0.980656   
     length 2.17365   
     axis -90 7.62852e-016 20   XYZ
    dof rx rz
    limits (-45.0 90.0)
           (-70.0 20.0)
  end
  begin
     id 5 
     name ltoes
     direction 1.53508e-011 -4.21705e-011 1   
     length 1.09427   
     axis -90 7.62852e-016 20   XYZ
    dof rx
    limits (-90.0 20.0)
  end
  begin
     id 6 
     name rhipjoint
     direction -0.700191 -0.625589 0.34405   
     length 2.53115  
     axis 0 0 0  XYZ 
  end
  begin
     id 7 
     name rfemur
     direction -0.34202 -0.939693 0   
     length 7.33006   
     axis 0 0 -20   XYZ
    dof rx ry rz
    limits (-160.0 20.0)
           (-70.0 70.0)
           (-70.0 60.0)
  end
  begin
     id 8 
     name rtibia
     direction -0.34202 -0.939693 0   
     length 7.64926   
     axis 0 0 -20   XYZ
    dof rx
    limits (-10.0 170.0)
 end
 begin
     id 9 
     name rfoot
     direction -0.0688927 -0.189281 0.979503   
     length 2.20493  
     axis -90 -7.62852e-016 -20   XYZ
    dof rx rz
    limits (-45.0 90.0)
           (-20.0 70.0)
  end
  begin
     id 10 
     name rtoes
     direction -1.53567e-011 -4.21933e-011 1   
     length 1.10919   
     axis -90 -7.62852e-016 -20   XYZ
    dof rx
    limits (-90.0 20.0)
  end
  begin
     id 11 
     name lowerback
     direction -0.0167868 0.989873 -0.140959   
     length 2.14596   
     axis 0 0 0   XYZ
    dof rx ry rz
    limits (-20.0 45.0)
           (-30.0 30.0)
           (-30.0 30.0)
  end
  begin
     id 12 
     name upperback
     direction 0.0129109 0.998033 0.0613525   
     length 2.10457   
     axis 0 0 0   XYZ
    dof rx ry rz
    limits (-20.0 45.0)
           (-30.0 30.0)
           (-30.0 30.0)
  end
  begin
     id 13 
     name thorax
     direction 0.0177047 0.991119 0.131797   
     length 2.17652   
     axis 0 0 0   XYZ
    dof rx ry rz
    limits (-20.0 45.0)
           (-30.0 30.0)
           (-30.0 30.0)
  end
  begin
     id 14 
     name lowerneck
     direction -0.0336893 0.997548 0.0613464   
     length 1.8912   
     axis 0 0 0   XYZ
    dof rx ry rz
    limits (-20.0 45.0)
           (-30.0 30.0)
           (-30.0 30.0)
  end
  begin
     id 15 
     name upperneck
     direction 0.0435909 0.997179 -0.0611028   
     length 1.8829   
     axis 0 0 0   XYZ
    dof rx ry rz
    limits (-20.0 45.0)
           (-30.0 30.0)
           (-30.0 30.0)
  end
  begin
     id 16
     name head
     direction 0.0175076 0.999444 -0.0283782  
     length 1.93197  
     axis 0 0 0   XYZ
    dof rx ry rz
    limits (-20.0 45.0)
           (-30.0 30.0)
           (-30.0 30.0)
  end
  begin
     id 17 
     name lclavicle
     direction 0.919164 0.389875 0.0559876  
     length 3.60004  
     axis 0 0 0   XYZ
    dof ry rz
    limits (-20.0 10.0)
           (0.0 20.0)
  end
  begin
     id 18 
     name lhumerus
     direction 1 -4.48958e-011 6.89191e-027   
     length 5.43301   
     axis 180 -30 -90   XYZ
    dof rx ry rz
    limits (-60.0 90.0)
           (-90.0 90.0)
           (-90.0 90.0)
  end
  begin
     id 19
     name lradius
     direction 1 -4.4897e-011 3.24727e-027   
     length 3.15936   
     axis 180 -30 -90   XYZ
    dof rx
    limits (-10.0 170.0)
  end
  begin
     id 20
     name lwrist
     direction 1 -4.4897e-011 9.00228e-027   
     length 1.57968   
     axis -6.29373e-015 90 90   XYZ
    dof ry
    limits (-180.0 0.0)
 end
  begin
     id 21 
     name lhand
     direction 1 -4.48968e-011 1.80042e-026   
     length 0.712827   
     axis -1.14882e-014 90 90   XYZ
    dof rx rz
    limits (-90.0 90.0)
           (-45.0 45.0)
  end
  begin
     id 22 
     name lfingers
     direction 1 -4.49019e-011 3.60267e-026   
     length 0.574699   
     axis -2.29769e-014 90 90   XYZ
    dof rx
    limits (0.0 90.0)
  end
  begin
     id 23
     name lthumb
     direction 0.707107 -6.3498e-011 0.707107   
     length 0.825157   
     axis -90 45 5.37419e-014   XYZ
    dof rx rz
    limits (-45.0 45.0)
           (-45.0 45.0)
  end
  begin
     id 24 
     name rclavicle
     direction -0.890334 0.455305 -0.00132111   
     length 3.51494  
     axis 0 0 0   XYZ 
    dof ry rz
    limits (-10.0 20.0)
           (-20.0 0.0)
  end
  begin
     id 25 
     name rhumerus
     direction -1 -4.48967e-011 5.07175e-028  
     length 5.34194   
     axis 180 30 90   XYZ
    dof rx ry rz
    limits (-90.0 60.0)
           (-90.0 90.0)
           (-90.0 90.0)
  end
  begin
     id 26 
     name rradius
     direction -1 -4.48955e-011 3.30467e-027   
     length 3.19351   
     axis 180 30 90   XYZ
    dof rx
    limits (-10.0 170.0)
  end
  begin
     id 27 
     name rwrist
     direction -1 -4.48968e-011 9.00208e-027   
     length 1.59676   
     axis -6.29373e-015 -90 -90   XYZ
    dof ry
    limits (-180.0 0.0)
  end
  begin
     id 28
     name rhand
     direction -1 -4.49e-011 1.80099e-026   
     length 0.743862   
     axis -1.14882e-014 -90 -90   XYZ
    dof rx rz
    limits (-90.0 90.0)
           (-45.0 45.0)
  end
  begin
     id 29
     name rfingers
     direction -1 -4.49009e-011 3.6023e-026   
     length 0.599721   
     axis -2.29769e-014 -90 -90   XYZ
    dof rx
    limits (0.0 90.0)
  end
  begin
     id 30
     name rthumb
     direction -0.707107 -6.35025e-011 0.707107   
     length 0.861083   
     axis -90 -45 -5.37419e-014   XYZ
    dof rx rz
    limits (-45.0 45.0)
           (-45.0 45.0)
  end
:hierarchy
  begin
    root lhipjoint rhipjoint lowerback
    lhipjoint lfemur
    lfemur ltibia
    ltibia lfoot
    lfoot ltoes
    rhipjoint rfemur
    rfemur rtibia
    rtibia rfoot
    rfoot rtoes
    lowerback upperback
    upperback thorax
    thorax lowerneck lclavicle rclavicle
    lowerneck upperneck
    upperneck head
    lclavicle lhumerus
    lhumerus lradius
    lradius lwrist
    lwrist lhand lthumb
    lhand lfingers
    rclavicle rhumerus
    rhumerus rradius
    rradius rwrist
    rwrist rhand rthumb
    rhand rfingers
  end

#!OML:ASF H:\Martial Arts Walks\Project 1\Capture day 1\Session 1\male.ASF
:FULLY-SPECIFIED
:DEGREES
313
root -1.06779 14.0051 -26.4284 5.06425 -57.2551 -10.3699
lowerback 19.1611 6.10288 2.62655
upperback -2.92144 8.85032 0.403483
thorax -13.7013 3.87938 -3.6927
lowerneck -1.75348 8.45264 0.538449
upperneck 6.71348 10.9513 5.19469
head 2.14186 5.59938 1.79563
rclavicle 1.54968e-013 6.75868e-015
rhumerus -55.5826 54.6066 -112.564
rradius 113.25
rwrist -79.9038
rhand 7.89626 -31.0144
rfingers 7.12502
rthumb 33.1284 -57.9875
lclavicle 1.54968e-013 6.75868e-015
lhumerus 4.44694 11.5355 78.6049
lradius 86.7542
lwrist -24.8387
lhand -39.1139 45.1401
lfingers 7.12502
lthumb -12.1134 74.7694
rfemur -35.4631 -22.9287 21.1284
rtibia 84.0306
rfoot -32.2412 -24.6426
rtoes 1.51363
lfemur -49.7942 41.6956 -1.6674
ltibia 65.6657
lfoot -3.23267 8.14443
ltoes -16.6113
314
root -1.06934 14.0219 -26.4209 5.25368 -57.1052 -10.4295
lowerback 19.1528 6.04549 2.6511
upperback -2.95843 8.78414 0.422705
thorax -13.7436 3.84571 -3.66777
lowerneck -1.70949 8.45605 0.522139
upperneck 6.55589 10.9657 5.15877
head 2.08283 5.6029 1.77789
rclavicle 1.47675e-013 2.38542e-014
rhumerus -55.6561 54.6776 -112.623
rradius 113.282
rwrist -79.9534
rhand 7.89621 -30.9374
rfingers 7.12502
rthumb 33.1283 -57.9105
lclavicle 1.47675e-013 2.38542e-014
lhumerus 4.38798 11.5964 78.6344
lradius 86.8006
lwrist -24.8949
lhand -39.0818 45.0419
lfingers 7.12502
lthumb -12.0825 74.673
rfemur -35.4776 -22.9203 21.2074
rtibia 83.8223
rfoot -32.1529 -24.6952
rtoes 1.55531
lfemur -50.0023 41.7612 -1.88504
ltibia 65.5556
lfoot -3.1578 8.37655
ltoes -17.0572
315
root -1.07126 14.0388 -26.4139 5.40808 -56.9771 -10.4521
lowerback 19.1393 5.99373 2.64982
upperback -2.99011 8.71774 0.434353
thorax -13.7791 3.81404 -3.636
lowerneck -1.66436 8.45904 0.510294
upperneck 6.39459 10.9797 5.11768
head 2.02309 5.60615 1.75766
rclavicle -6.18407e-014 4.37326e-015
rhumerus -55.7154 54.7385 -112.683
rradius 113.303
rwrist -79.9901
rhand 7.90035 -30.8559
rfingers 7.12502
rthumb 33.1323 -57.8281
lclavicle -6.18407e-014 4.37326e-015
lhumerus 4.32776 11.6578 78.6549
lradius 86.8683
lwrist -24.9071
lhand -39.0475 44.9523
lfingers 7.12502
lthumb -12.0494 74.5854
rfemur -35.4944 -22.9156 21.2636
rtibia 83.6222
rfoot -32.0715 -24.7322
rtoes 1.60092
lfemur -50.1794 41.8193 -2.1043
ltibia 65.4264
lfoot -3.04983 8.5444
ltoes -17.4264
316
root -1.07355 14.0557 -26.4074 5.53221 -56.8736 -10.448
lowerback 19.1221 5.94948 2.62867
upperback -3.01525 8.65525 0.440031
thorax -13.8065 3.78595 -3.60016
lowerneck -1.62115 8.46195 0.504339
upperneck 6.23909 10.9931 5.07415
head 1.96623 5.60929 1.73617
rclavicle -4.98157e-014 -4.77083e-015
rhumerus -55.7627 54.791 -112.745
rradius 113.313
rwrist -80.0096
rhand 7.92118 -30.7782
rfingers 7.12502
rthumb 33.1521 -57.7462
lclavicle -4.98157e-014 -4.77083e-015
lhumerus 4.27398 11.7158 78.6714
lradius 86.9428
lwrist -24.883
lhand -39.0165 44.8805
lfingers 7.12502
lthumb -12.0196 74.5153
rfemur -35.5063 -22.9132 21.2986
rtibia 83.4278
rfoot -31.9938 -24.752
rtoes 1.63829
lfemur -50.3183 41.8706 -2.31287
ltibia 65.2814
lfoot -2.91526 8.63945
ltoes -17.6795
317
root -1.07624 14.0723 -26.401 5.63224 -56.7949 -10.4275
lowerback 19.1015 5.91324 2.59286
upperback -3.03355 8.59894 0.442112
thorax -13.8249 3.76222 -3.56113
lowerneck -1.58205 8.46567 0.50423
upperneck 6.09756 11.0066 5.03108
head 1.91511 5.61283 1.71479
rclavicle 1.33537e-013 1.35174e-014
rhumerus -55.8035 54.8392 -112.81
rradius 113.311
rwrist -80.0102
rhand 7.96625 -30.7118
rfingers 7.12502
rthumb 33.1949 -57.6706
lclavicle 1.33537e-013 1.35174e-014
lhumerus 4.23122 11.7705 78.6891
lradius 87.0115
lwrist -24.8403
lhand -38.9865 44.8316
lfingers 7.12502
lthumb -11.9906 74.4681
rfemur -35.5083 -22.9137 21.3148
rtibia 83.2373
rfoot -31.9162 -24.754
rtoes 1.65526
lfemur -50.4175 41.915 -2.5013
ltibia 65.1263
lfoot -2.76345 8.66321
ltoes -17.7834
